<?xml version="1.0" standalone="no"?>
<!DOCTYPE svg PUBLIC "-//W3C//DTD SVG 20010904//EN"
 "http://www.w3.org/TR/2001/REC-SVG-20010904/DTD/svg10.dtd">
<svg version="1.0" xmlns="http://www.w3.org/2000/svg"
 width="1000.000000pt" height="1000.000000pt" viewBox="0 0 1000.000000 1000.000000"
 preserveAspectRatio="xMidYMid meet">
<metadata>
Created by potrace 1.15, written by Peter Selinger 2001-2017
</metadata>
<g transform="translate(0.000000,1000.000000) scale(0.100000,-0.100000)"
fill="#000000" stroke="none">
<path d="M4511 9871 c-36 -34 -37 -44 -15 -195 13 -90 14 -122 4 -190 -28
-192 -125 -355 -324 -546 -441 -423 -568 -581 -726 -905 -115 -234 -178 -438
-231 -742 l-24 -133 -432 0 -433 0 0 -64 0 -63 83 -7 c45 -4 185 -11 311 -16
125 -5 230 -11 232 -13 2 -2 -3 -21 -12 -43 -23 -55 -14 -125 22 -177 36 -51
78 -80 155 -108 32 -12 64 -28 70 -35 6 -7 21 -62 34 -121 29 -136 81 -298
151 -466 166 -401 454 -788 819 -1099 113 -96 228 -211 278 -278 78 -105 104
-167 117 -277 11 -86 30 -127 70 -148 49 -25 88 -19 126 19 38 38 40 56 25
179 l-9 69 110 191 c158 275 308 527 332 562 l21 30 5 -40 c6 -49 22 -58 150
-81 70 -12 175 -18 403 -21 448 -7 671 16 716 73 13 16 20 49 25 111 8 99 84
588 119 761 15 75 19 112 12 112 -6 0 -51 -14 -101 -30 -115 -40 -255 -54
-444 -45 -399 18 -633 107 -894 340 -172 154 -203 178 -261 206 -56 26 -74 29
-245 39 -232 13 -436 35 -565 61 -55 11 -216 59 -359 107 -232 78 -254 87
-215 90 55 5 1221 -15 1654 -28 405 -12 527 -20 522 -33 -5 -15 -68 -35 -169
-52 -147 -26 -408 -106 -454 -139 -18 -14 -15 -18 56 -87 149 -144 272 -239
365 -284 161 -78 294 -103 600 -112 252 -7 309 1 444 62 108 48 277 103 511
165 503 135 532 151 532 301 0 91 -30 154 -88 186 -43 23 -195 57 -862 192
-244 49 -446 92 -449 94 -2 3 5 36 16 73 12 38 35 136 51 218 17 82 32 152 35
154 3 3 44 -7 92 -22 49 -14 94 -26 101 -26 15 0 16 50 1 105 -18 70 -146 319
-189 367 -23 27 -56 52 -77 59 -72 23 -259 -6 -508 -80 -98 -30 -133 -36 -141
-28 -12 13 -412 671 -582 957 -267 451 -352 610 -352 656 0 50 -38 160 -66
194 -36 42 -98 43 -143 1z m529 -1021 c336 -556 501 -840 494 -852 -3 -5 -39
-34 -80 -64 -117 -86 -187 -188 -233 -337 -22 -73 -38 -210 -28 -250 7 -25 80
-102 119 -124 44 -24 50 -18 43 41 -9 68 -1 92 35 111 41 21 91 18 195 -10 49
-14 100 -25 113 -25 38 0 78 -27 96 -65 23 -48 42 -153 30 -165 -9 -9 -339 -4
-1334 20 -223 5 -555 12 -739 16 l-333 7 6 56 c19 165 89 431 153 586 81 195
212 412 345 570 41 50 147 160 234 245 231 226 291 287 354 366 68 85 139 219
175 332 l27 84 33 -54 c17 -29 150 -249 295 -488z m-1265 -2400 c258 -84 333
-100 705 -145 557 -68 682 -84 686 -87 5 -6 32 -221 58 -477 l24 -233 -203
-347 c-254 -435 -288 -491 -297 -491 -4 0 -32 38 -62 85 -69 106 -174 216
-346 364 -74 63 -165 146 -202 183 -316 320 -555 723 -663 1121 -15 54 -24
105 -21 112 6 17 15 15 321 -85z"/>
<path d="M6519 5055 c-10 -9 -321 -45 -469 -54 -179 -11 -449 0 -637 25 -71 9
-148 17 -171 18 l-44 1 -58 -165 c-67 -194 -99 -273 -255 -640 -65 -151 -130
-309 -145 -350 l-28 -74 78 -61 c139 -110 314 -201 501 -260 165 -52 413 -73
659 -55 177 12 246 22 380 56 315 78 568 248 570 381 0 13 -69 233 -154 490
-85 258 -167 519 -182 581 -27 104 -33 119 -45 107z"/>
<path d="M4945 3461 c-17 -34 -78 -247 -125 -441 l-33 -135 -87 -90 c-179
-187 -179 -187 -91 -290 33 -37 57 -73 55 -79 -2 -6 -53 -198 -113 -426 -351
-1327 -434 -1660 -428 -1722 9 -105 111 -185 222 -176 69 6 143 50 166 98 26
55 453 1221 750 2051 9 23 19 27 101 42 50 9 95 20 101 26 7 7 5 40 -7 103 -9
51 -23 130 -30 175 l-13 81 102 279 c56 153 105 288 109 300 6 19 2 23 -31 28
-183 32 -416 101 -526 157 -102 51 -105 51 -122 19z"/>
<path d="M6651 3465 c-132 -62 -452 -155 -530 -155 -73 0 -73 -21 -5 -305 51
-219 51 -196 4 -340 -23 -71 -44 -149 -47 -175 l-5 -47 53 -26 c30 -14 71 -32
92 -41 20 -8 39 -21 42 -28 3 -7 27 -256 55 -553 105 -1126 142 -1469 171
-1576 15 -60 109 -119 189 -119 53 0 99 20 148 65 65 58 66 65 59 475 -7 382
-30 1138 -47 1540 l-10 235 22 15 c82 55 143 108 146 127 4 30 -37 109 -129
243 l-78 115 -26 265 c-28 286 -32 310 -43 310 -4 0 -31 -12 -61 -25z"/>
</g>
</svg>
