<?xml version="1.0" standalone="no"?>
<!DOCTYPE svg PUBLIC "-//W3C//DTD SVG 20010904//EN"
 "http://www.w3.org/TR/2001/REC-SVG-20010904/DTD/svg10.dtd">
<svg version="1.0" xmlns="http://www.w3.org/2000/svg"
 width="1000.000000pt" height="1000.000000pt" viewBox="0 0 1000.000000 1000.000000"
 preserveAspectRatio="xMidYMid meet">
<metadata>
Created by potrace 1.15, written by Peter Selinger 2001-2017
</metadata>
<g transform="translate(0.000000,1000.000000) scale(0.100000,-0.100000)"
fill="#000000" stroke="none">
<path d="M5346 9870 c-28 -34 -66 -144 -66 -194 0 -46 -85 -205 -352 -656
-170 -286 -570 -944 -582 -957 -8 -8 -43 -2 -141 28 -249 74 -436 103 -508 80
-21 -7 -54 -32 -77 -59 -43 -48 -171 -297 -189 -367 -15 -55 -14 -105 2 -105
6 0 51 12 100 26 48 15 89 25 92 22 3 -2 18 -72 35 -154 16 -82 39 -180 51
-218 11 -37 18 -70 16 -73 -3 -2 -205 -45 -449 -94 -667 -135 -819 -169 -862
-192 -58 -32 -88 -95 -88 -186 0 -150 29 -166 532 -301 234 -62 403 -117 511
-165 135 -61 192 -69 444 -62 482 14 633 76 965 396 71 69 74 73 56 87 -46 33
-307 113 -454 139 -101 17 -164 37 -169 52 -5 13 117 21 522 33 433 13 1599
33 1654 28 39 -3 17 -12 -215 -90 -143 -48 -304 -96 -359 -107 -129 -26 -333
-48 -565 -61 -251 -14 -244 -11 -506 -245 -261 -233 -495 -322 -894 -340 -189
-9 -329 5 -444 45 -50 16 -95 30 -101 30 -7 0 -3 -37 12 -112 35 -173 111
-662 119 -761 5 -62 12 -95 25 -111 45 -57 268 -80 716 -73 228 3 333 9 403
21 128 23 144 32 150 81 l5 40 21 -30 c24 -35 174 -287 332 -562 l110 -191 -9
-69 c-15 -123 -13 -141 25 -179 38 -38 77 -44 126 -19 40 21 59 62 70 148 13
110 39 172 117 277 50 67 165 182 278 278 365 311 653 698 819 1099 70 168
122 330 151 466 13 59 28 114 34 121 6 7 38 23 70 35 77 28 119 57 155 108 36
52 45 122 22 177 -9 22 -14 41 -12 43 2 2 107 8 232 13 126 5 266 12 312 16
l82 7 0 63 0 64 -433 0 -432 0 -24 133 c-53 304 -116 508 -231 742 -158 324
-285 482 -726 905 -199 191 -296 354 -324 546 -10 68 -9 100 4 190 22 151 21
161 -15 195 -45 42 -107 41 -143 -1z m-31 -562 c36 -113 107 -247 175 -332 63
-79 123 -140 354 -366 87 -85 193 -195 234 -245 133 -158 264 -375 345 -570
64 -155 134 -421 153 -586 l6 -56 -333 -7 c-184 -4 -516 -11 -739 -16 -995
-24 -1325 -29 -1334 -20 -12 12 7 117 30 165 18 38 58 65 96 65 13 0 64 11
113 25 104 28 154 31 195 10 36 -19 44 -43 35 -111 -7 -59 -1 -65 43 -41 39
22 112 99 119 124 9 40 -6 177 -28 250 -46 151 -126 260 -262 361 l-58 43 37
67 c84 150 784 1321 791 1322 1 0 13 -37 28 -82z m1211 -2880 c-107 -399 -346
-804 -664 -1126 -37 -37 -128 -120 -202 -183 -172 -148 -277 -258 -346 -364
-30 -47 -58 -85 -62 -85 -9 0 -43 56 -297 491 l-203 347 24 233 c26 256 53
471 58 477 4 3 129 19 686 87 377 46 443 60 734 154 274 89 278 90 290 80 6
-5 -2 -50 -18 -111z"/>
<path d="M3436 4948 c-15 -62 -97 -323 -182 -581 -85 -257 -154 -477 -154
-490 1 -104 171 -244 405 -332 274 -103 684 -139 1025 -90 224 32 489 149 680
300 l78 61 -28 74 c-15 41 -80 199 -145 350 -156 367 -188 446 -255 640 l-58
165 -44 -1 c-23 -1 -100 -9 -171 -18 -188 -25 -458 -36 -637 -25 -144 8 -442
43 -472 54 -9 4 -21 -26 -42 -107z"/>
<path d="M3276 3468 c-3 -13 -16 -142 -31 -288 l-26 -265 -78 -115 c-92 -134
-133 -213 -129 -243 3 -19 64 -72 146 -127 l22 -15 -10 -235 c-17 -402 -40
-1158 -47 -1540 -7 -410 -6 -417 59 -475 49 -45 95 -65 148 -65 80 0 174 59
189 119 29 107 66 450 171 1576 28 297 52 546 55 553 3 7 22 20 42 28 21 9 62
27 92 41 l53 26 -5 47 c-3 26 -24 104 -47 175 -47 144 -47 121 4 340 68 283
67 305 -3 305 -78 0 -369 83 -512 146 -43 19 -80 34 -83 34 -3 0 -8 -10 -10
-22z"/>
<path d="M4952 3450 c-139 -67 -352 -131 -545 -165 -33 -5 -37 -9 -31 -28 4
-12 53 -147 109 -300 l102 -279 -13 -81 c-7 -45 -21 -124 -30 -175 -12 -63
-14 -96 -7 -103 6 -6 51 -17 101 -26 82 -15 92 -19 101 -42 297 -830 724
-1996 750 -2051 23 -48 97 -92 166 -98 111 -9 213 71 222 176 6 62 -77 395
-428 1722 -60 228 -111 420 -113 426 -2 6 22 42 55 79 88 103 89 102 -91 290
l-87 90 -51 205 c-60 237 -96 358 -114 383 -12 16 -18 15 -96 -23z"/>
</g>
</svg>
