<?xml version="1.0" standalone="no"?>
<!DOCTYPE svg PUBLIC "-//W3C//DTD SVG 20010904//EN"
 "http://www.w3.org/TR/2001/REC-SVG-20010904/DTD/svg10.dtd">
<svg version="1.0" xmlns="http://www.w3.org/2000/svg"
 width="1000.000000pt" height="1000.000000pt" viewBox="0 0 1000.000000 1000.000000"
 preserveAspectRatio="xMidYMid meet">
<metadata>
Created by potrace 1.15, written by Peter Selinger 2001-2017
</metadata>
<g transform="translate(0.000000,1000.000000) scale(0.100000,-0.100000)"
fill="#000000" stroke="none">
<path d="M6135 9181 c-170 -27 -322 -108 -424 -223 l-32 -37 48 -5 c183 -22
313 -65 427 -143 85 -58 136 -121 192 -238 65 -134 71 -195 49 -470 -21 -256
-15 -337 35 -443 40 -86 146 -192 215 -216 121 -41 261 -26 371 40 89 53 88
52 65 115 -49 131 -53 167 -61 564 -10 440 -18 500 -93 650 -127 256 -348 397
-642 410 -55 2 -123 0 -150 -4z"/>
<path d="M9729 8757 c-90 -62 -479 -329 -864 -592 -1022 -699 -1816 -1247
-2262 -1561 l-62 -44 -11 58 c-42 219 -151 421 -407 752 -180 234 -233 306
-233 316 0 5 27 26 60 48 295 189 401 482 273 752 -59 125 -206 242 -343 274
-81 19 -252 17 -329 -4 -192 -52 -372 -198 -464 -375 -59 -113 -60 -111 20
-111 136 0 408 -50 386 -71 -4 -4 -105 -37 -223 -74 -329 -101 -430 -136 -430
-147 0 -6 22 -40 49 -77 75 -100 184 -199 318 -290 l62 -41 -55 -85 c-140
-215 -246 -526 -284 -835 -16 -126 -24 -392 -16 -501 l8 -96 676 -5 676 -5
545 375 c1164 801 1938 1334 2809 1937 l272 189 0 163 c0 90 -1 163 -3 163 -2
0 -77 -51 -168 -113z"/>
<path d="M2076 7419 c-124 -16 -269 -49 -386 -89 -129 -43 -270 -104 -270
-118 0 -5 46 -45 103 -90 56 -45 133 -110 170 -144 l69 -63 2 -280 c2 -315 5
-339 83 -580 59 -185 71 -281 81 -656 l9 -316 30 -66 c60 -126 161 -197 296
-205 97 -6 155 10 218 59 87 69 118 144 154 364 14 83 30 168 36 190 17 62 67
149 108 190 l39 37 58 -81 c209 -288 386 -651 487 -997 l15 -52 -196 -134
c-1309 -898 -1942 -1333 -2257 -1553 -88 -61 -268 -184 -401 -272 -216 -144
-414 -291 -422 -312 -1 -4 100 -5 225 -3 l228 5 250 172 c138 94 432 297 655
450 223 153 486 335 585 405 99 69 186 130 194 135 12 7 13 -11 8 -111 -10
-240 20 -455 86 -597 40 -85 138 -218 199 -268 129 -107 278 -161 478 -176
l90 -6 0 246 0 245 -103 49 c-189 91 -214 145 -224 481 l-6 192 436 0 436 0
45 -142 c24 -79 108 -352 186 -608 163 -537 267 -869 343 -1095 l54 -160 -26
-40 c-36 -56 -256 -365 -352 -493 -43 -59 -79 -109 -79 -112 0 -3 154 -4 342
-3 l341 2 78 131 c42 73 91 167 108 210 l31 79 -40 623 c-51 800 -67 1022 -90
1298 -10 124 -15 228 -12 231 23 21 388 280 490 347 67 46 122 84 122 86 0 2
-77 74 -170 161 -245 227 -353 372 -394 530 -45 175 -50 269 -50 941 l-1 640
-50 83 c-93 153 -206 293 -374 461 -169 169 -288 266 -466 382 -336 220 -667
346 -1028 393 -129 16 -454 19 -571 4z m599 -495 c178 -50 332 -133 425 -229
25 -25 38 -44 30 -41 -8 3 -105 30 -215 61 -110 31 -207 58 -216 61 -13 4 -21
-10 -37 -63 -38 -124 -80 -305 -137 -583 -67 -326 -112 -518 -155 -654 -34
-112 -45 -132 -36 -66 16 116 87 990 106 1310 6 96 13 194 16 217 l5 41 62
-14 c34 -8 102 -26 152 -40z"/>
<path d="M5554 5884 c-4 -44 -4 -244 0 -446 l7 -368 -241 0 -241 0 7 -22 c22
-73 299 -660 482 -1023 l45 -90 16 50 c13 42 15 109 13 437 l-3 387 235 3
c129 2 237 6 241 9 3 4 -35 91 -86 195 -50 104 -172 355 -270 558 -99 204
-183 374 -188 379 -5 5 -12 -22 -17 -69z"/>
<path d="M7945 5805 c-107 -16 -231 -49 -327 -86 -43 -17 -78 -32 -78 -33 0
-2 57 -25 128 -51 478 -178 691 -351 861 -699 79 -161 109 -304 131 -621 27
-406 66 -567 179 -740 130 -199 329 -342 598 -429 135 -43 453 -101 453 -82 0
3 -15 29 -34 58 -141 222 -252 569 -300 938 -8 63 -24 221 -36 350 -23 259
-44 373 -97 523 -166 478 -525 790 -1002 871 -113 19 -358 20 -476 1z"/>
<path d="M6643 5654 l-22 -5 1 -447 c2 -426 1 -452 -20 -550 -53 -246 -167
-441 -369 -632 -85 -80 -179 -147 -610 -435 l-510 -340 -6 -329 c-10 -570 18
-737 152 -903 143 -177 395 -288 731 -323 52 -5 95 -8 96 -7 1 1 4 124 7 273
l5 272 -57 7 c-76 9 -167 33 -210 55 -43 22 -97 74 -116 110 -28 54 -38 159
-31 319 4 86 8 156 9 157 1 1 148 75 327 164 179 89 384 193 457 232 l132 69
77 -102 c243 -321 534 -598 874 -831 103 -70 292 -185 353 -214 20 -10 37 -22
37 -27 0 -4 -31 -81 -69 -170 -38 -89 -146 -351 -239 -582 -94 -231 -186 -458
-206 -504 -20 -46 -35 -86 -32 -88 2 -2 164 -1 360 3 313 6 356 9 360 23 3 9
69 234 146 501 78 267 180 609 227 760 47 151 87 282 90 291 4 13 -308 689
-442 959 l-37 75 66 100 c264 397 316 844 147 1266 -181 451 -553 751 -1036
835 -88 15 -591 29 -642 18z"/>
</g>
</svg>
