<?xml version="1.0" standalone="no"?>
<!DOCTYPE svg PUBLIC "-//W3C//DTD SVG 20010904//EN"
 "http://www.w3.org/TR/2001/REC-SVG-20010904/DTD/svg10.dtd">
<svg version="1.0" xmlns="http://www.w3.org/2000/svg"
 width="1000.000000pt" height="1000.000000pt" viewBox="0 0 1000.000000 1000.000000"
 preserveAspectRatio="xMidYMid meet">
<metadata>
Created by potrace 1.15, written by Peter Selinger 2001-2017
</metadata>
<g transform="translate(0.000000,1000.000000) scale(0.100000,-0.100000)"
fill="#000000" stroke="none">
<path d="M3628 9180 c-255 -41 -442 -177 -555 -405 -75 -150 -83 -210 -93
-650 -8 -397 -12 -433 -61 -564 -23 -63 -24 -62 65 -115 110 -66 250 -81 371
-40 69 24 175 130 215 216 50 106 56 187 35 443 -22 275 -16 336 49 470 56
117 107 180 192 238 114 78 244 121 427 143 l48 5 -32 37 c-82 93 -201 166
-329 201 -86 24 -247 34 -332 21z"/>
<path d="M100 8707 l0 -163 273 -189 c870 -603 1644 -1136 2808 -1937 l545
-375 676 5 676 5 8 96 c8 109 0 375 -16 501 -38 309 -144 620 -284 835 l-55
85 62 41 c134 91 243 190 318 290 27 37 49 71 49 77 0 11 -101 46 -430 147
-118 37 -219 70 -223 74 -22 21 250 71 386 71 80 0 79 -2 20 111 -92 177 -272
323 -464 375 -77 21 -248 23 -329 4 -91 -21 -183 -75 -253 -149 -170 -180
-192 -432 -56 -647 46 -72 151 -174 239 -230 33 -22 60 -43 60 -48 0 -10 -53
-82 -233 -316 -256 -331 -365 -533 -407 -752 l-11 -58 -62 44 c-444 313 -1238
861 -2247 1551 -377 257 -761 521 -855 585 -93 64 -176 120 -182 124 -10 6
-13 -28 -13 -157z"/>
<path d="M7340 7414 c-279 -38 -567 -134 -822 -275 -253 -140 -444 -284 -659
-499 -168 -168 -281 -308 -374 -461 l-50 -83 -1 -640 c0 -672 -5 -766 -50
-941 -41 -158 -149 -303 -394 -530 -93 -87 -170 -159 -170 -161 0 -2 55 -40
123 -86 101 -67 466 -326 489 -347 3 -3 -2 -107 -12 -231 -23 -276 -39 -498
-90 -1298 l-40 -623 31 -79 c17 -43 66 -137 108 -210 l78 -131 341 -2 c188 -1
342 0 342 3 0 3 -36 53 -79 112 -96 128 -316 437 -352 493 l-26 40 54 160 c76
226 180 558 343 1095 78 256 162 529 186 608 l45 142 436 0 436 0 -6 -192
c-10 -336 -35 -390 -224 -481 l-103 -49 0 -245 0 -246 90 6 c200 15 349 69
478 176 61 50 159 183 199 268 66 142 96 357 86 597 -5 100 -4 118 8 111 8 -5
95 -66 194 -135 99 -70 362 -252 585 -405 223 -153 518 -356 655 -450 l250
-172 228 -5 c125 -2 226 -1 225 3 -8 21 -206 168 -422 312 -133 88 -313 211
-401 272 -315 220 -948 655 -2257 1553 l-196 134 15 52 c101 346 278 709 487
997 l58 81 39 -37 c41 -41 91 -128 108 -190 6 -22 22 -107 36 -190 36 -220 67
-295 154 -364 63 -49 121 -65 218 -59 135 8 236 79 296 205 l30 66 9 316 c10
375 22 471 81 656 78 241 81 265 83 580 l2 280 69 63 c37 34 114 99 171 144
56 45 102 85 102 90 0 14 -141 75 -270 118 -123 41 -262 72 -400 90 -117 14
-444 11 -570 -6z m214 -604 c15 -275 82 -1117 106 -1339 6 -52 9 -96 7 -98 -6
-6 -55 155 -92 302 -18 72 -61 265 -95 430 -61 301 -104 482 -142 608 -16 53
-24 67 -37 63 -9 -3 -106 -30 -216 -61 -110 -31 -207 -58 -215 -61 -8 -2 13
23 47 55 113 108 258 179 488 237 l130 32 6 -21 c3 -12 9 -78 13 -147z"/>
<path d="M4382 5863 c-28 -56 -103 -209 -166 -340 -62 -131 -164 -341 -225
-467 -62 -125 -109 -231 -106 -235 4 -3 112 -7 241 -9 l235 -3 -3 -387 c-2
-328 0 -395 13 -437 l16 -50 45 90 c183 363 460 950 482 1023 l7 22 -240 0
-241 0 5 398 c4 218 2 420 -3 447 l-8 50 -52 -102z"/>
<path d="M1575 5805 c-479 -88 -833 -397 -998 -872 -53 -150 -74 -264 -97
-523 -12 -129 -28 -287 -36 -350 -48 -369 -159 -716 -300 -938 -19 -29 -34
-55 -34 -58 0 -19 318 39 453 82 269 87 468 230 598 429 113 173 152 334 179
740 22 317 52 460 131 621 171 349 383 521 863 699 123 46 127 49 103 62 -44
23 -203 73 -299 94 -125 28 -445 35 -563 14z"/>
<path d="M2865 5653 c-408 -33 -740 -199 -970 -486 -243 -300 -352 -681 -300
-1042 31 -214 102 -397 231 -590 l66 -100 -37 -75 c-134 -270 -446 -946 -442
-959 3 -9 43 -140 90 -291 47 -151 149 -493 227 -760 77 -267 143 -492 146
-501 4 -14 47 -17 360 -23 196 -4 358 -5 360 -3 3 2 -12 42 -32 88 -20 46
-112 273 -206 504 -93 231 -201 493 -239 582 -38 89 -69 166 -69 170 0 5 17
17 38 27 60 29 249 144 352 214 340 233 631 510 874 831 l77 102 132 -69 c73
-39 278 -143 457 -232 179 -89 326 -163 327 -164 1 -1 5 -71 9 -157 7 -160 -3
-265 -31 -319 -19 -36 -73 -88 -116 -110 -43 -22 -134 -46 -210 -55 l-57 -7 5
-272 c3 -149 6 -272 7 -273 1 -1 44 2 96 7 336 35 588 146 731 323 134 166
162 333 152 903 l-6 329 -510 340 c-431 288 -525 355 -610 435 -202 191 -316
386 -369 632 -21 98 -22 124 -20 549 l1 447 -31 6 c-31 6 -408 6 -483 -1z"/>
</g>
</svg>
