<?xml version="1.0" encoding="utf-8"?>
<!-- Svg Vector Icons : http://www.onlinewebfonts.com/icon -->
<!DOCTYPE svg PUBLIC "-//W3C//DTD SVG 1.1//EN" "http://www.w3.org/Graphics/SVG/1.1/DTD/svg11.dtd">
<svg version="1.1" xmlns="http://www.w3.org/2000/svg" xmlns:xlink="http://www.w3.org/1999/xlink" x="0px" y="0px" viewBox="0 0 1000 1000" enable-background="new 0 0 1000 1000" xml:space="preserve">
<metadata> Svg Vector Icons : http://www.onlinewebfonts.com/icon </metadata>
<g><path d="M348.4,249.2c28.3-28.3-1.4-70.7,16.3-103.2c10.6-26.1,39.6-37.4,66.4-38.2c-28.3-37.4-93.3-33.9-118,5.7c-28.3,40.3-2.8,92.6-22.6,135.7C306,263.3,333.6,267.5,348.4,249.2z"/><path d="M507.4,394.7c4.2-53-3.5-108.1-35.3-151.9c17-10.6,33.2-23.3,43.8-41c-22.6-7.8-45.9-14.1-68.5-21.9c15.5-6.4,31.8-7.1,48-7.8c-10.6-29.7-41.7-53-74.2-48.8c-29,0.7-52.3,29-48,57.2c2.1,22.6,20.5,39.6,39.6,50.2c-24.7,36-60.8,69.2-66.4,114.5C235.4,266.8,122.3,190.5,10,113.5c0,10.6,0.7,21.2,0.7,31.8c120.8,84.1,241.6,166.7,362.5,250.1C418.4,394.7,462.9,394.7,507.4,394.7z"/><path d="M990,775.6c-17-15.5-37.4-27.6-56.5-40.3c-90.4-62.9-181.6-125.1-272-187.2c11.3-41,30.4-80.5,56.5-113.8c29,19.8,8.5,64.3,38.9,81.3c21.2,10.6,45.9-4.9,48.8-26.9c3.5-31.8-2.8-64.3,9.2-94.7c10.6-27.6,9.9-57.2,7.8-85.5c11.3-10.6,23.3-20.5,35.3-29.7c-60.1-31.1-135-27.6-195,2.1c-48,24-91.1,61.5-118,108.1c-4.2,51.6,4.2,103.9-4.9,155.4c-6.4,32.5-35.3,50.9-57.2,73.5c21.2,13.4,41,28.3,61.5,43.1c-6.4,71.4-9.9,142.7-14.8,214.1c4.2,15.5,14.1,29.7,21.9,43.1c22.6-1.4,44.5-0.7,67.1,0c-15.5-21.2-31.8-42.4-45.9-64.3c22.6-66.4,41.7-134.2,62.9-201.4c29,0,58.6,0,87.6,0c-0.7,17,1.4,33.9-2.8,50.2c-4.2,13.4-18.4,17.7-29.7,22.6c0,16.3,0,31.8,0,48c24,0.7,49.5-7.1,64.3-26.8c21.9-24.7,21.2-60.1,19.1-90.4c56.5,40.3,114.5,79.1,171.7,118.7C959.6,773.4,974.5,774.2,990,775.6z M754.7,301.5c3.5,55.8,7.8,112.3,13.4,168.2c-17.7-47.3-21.2-98.9-36.7-147c-15.5,4.2-31.8,9.2-47.3,13.4C701,314.2,728.6,307.1,754.7,301.5z"/><path d="M438.9,605.3c17.7-37.4,37.4-74.2,53-112.3c-16.3,0-31.8,0-48,0c-1.4-29.7,3.5-59.4-0.7-88.3c-18.4,37.4-36,75.6-55.1,113.1c16.3,1.4,31.8,0.7,48,0.7C439.6,547.3,430.4,577.7,438.9,605.3z"/><path d="M245.3,431.5c-43.8-19.1-97.5-19.1-137.8,8.5C70.1,465.4,51,510.6,48.9,554.4c-3.5,48-9.9,98.2-37.4,139.2c36.7-3.5,77-14.1,100.3-45.9c34.6-43.1,9.2-105.3,39.6-150.5C169,459.7,209.3,444.2,245.3,431.5z"/><path d="M488.3,675.9c-31.8-21.2-63.6-42.4-95.4-63.6c-29-19.8-51.6-50.9-55.1-86.9c-2.1-30.4,0-60.1-0.7-90.4c-32.5-0.7-67.1-2.8-97.5,11.3c-55.1,22.6-89.7,86.2-79.1,144.8c3.5,24,14.8,45.9,29.7,65c-17,33.9-32.5,68.5-48.8,102.5c17,52.3,31.8,105.3,47.3,158.3c24,0,47.3,0,70.7,0.7c-19.1-44.5-36-90.4-55.8-135c53.7-27.6,100.3-67.8,135-117.3c31.1,15.5,61.5,31.8,92.6,46.6c0.7,15.5,3.5,31.8-1.4,47.3c-7.1,14.8-24.7,17-38.9,18.4c0,17.7,0.7,35.3,0.7,53.7c36-2.1,79.1-13.4,92.6-51.6C493.3,745.9,486.9,710.6,488.3,675.9z"/></g>
</svg>