<?xml version="1.0" standalone="no"?>
<!DOCTYPE svg PUBLIC "-//W3C//DTD SVG 20010904//EN"
 "http://www.w3.org/TR/2001/REC-SVG-20010904/DTD/svg10.dtd">
<svg version="1.0" xmlns="http://www.w3.org/2000/svg"
 width="281.000000pt" height="281.000000pt" viewBox="0 0 281.000000 281.000000"
 preserveAspectRatio="xMidYMid meet">
<metadata>
Created by potrace 1.15, written by Peter Selinger 2001-2017
</metadata>
<g transform="translate(0.000000,281.000000) scale(0.100000,-0.100000)"
fill="#000000" stroke="none">
<path d="M1187 2700 c-15 -4 -43 -22 -63 -39 -44 -39 -66 -39 -99 2 -25 31
-26 31 -40 13 -8 -11 -15 -40 -15 -64 0 -35 6 -49 29 -73 49 -49 124 -36 236
40 20 14 46 21 78 21 48 0 48 0 45 32 -2 23 -11 37 -33 50 -37 21 -101 30
-138 18z"/>
<path d="M861 2591 c-8 -5 -17 -26 -20 -47 -6 -36 -9 -39 -44 -42 -20 -2 -37
-7 -37 -11 0 -5 18 -29 41 -55 50 -56 119 -81 212 -74 56 4 63 8 94 43 34 39
43 75 19 75 -7 0 -27 -5 -45 -11 -47 -16 -117 21 -151 81 -27 46 -45 57 -69
41z"/>
<path d="M1260 2573 c-54 -21 -90 -84 -90 -156 0 -44 5 -62 29 -93 42 -58 65
-75 108 -80 86 -11 143 53 143 161 0 68 -21 118 -61 148 -27 19 -102 31 -129
20z"/>
<path d="M1078 2183 c-26 -4 -28 -7 -28 -56 1 -76 44 -440 54 -456 7 -11 166
-91 181 -91 3 0 5 114 5 254 l0 254 -23 6 c-12 3 -49 26 -81 51 -32 25 -63 44
-70 44 -6 -1 -23 -4 -38 -6z"/>
<path d="M1440 2155 c-25 -21 -60 -45 -77 -53 l-33 -16 0 -254 c0 -216 2 -253
14 -249 8 3 49 20 92 38 l77 32 -6 233 -7 232 40 -5 c37 -5 40 -4 40 19 0 32
-18 47 -62 54 -29 5 -41 0 -78 -31z"/>
<path d="M1804 2073 c-55 -25 -136 -43 -190 -43 l-34 0 0 -102 c0 -208 35
-462 84 -606 37 -107 81 -182 141 -242 l54 -54 37 20 c97 52 171 203 208 429
22 131 39 406 31 490 l-6 72 -78 6 c-48 3 -101 14 -137 29 l-60 24 -50 -23z
m130 -128 c35 -8 72 -18 80 -21 21 -8 21 -62 0 -270 -22 -226 -73 -412 -129
-464 l-24 -22 -31 48 c-64 101 -123 357 -136 593 l-7 121 29 1 c16 0 47 6 69
14 54 18 73 18 149 0z"/>
<path d="M845 1748 c-9 -13 -39 -58 -66 -101 -43 -69 -51 -77 -73 -71 -30 7
-39 -7 -26 -40 7 -20 6 -37 -6 -66 -21 -52 -12 -88 24 -96 67 -14 67 -20 7
-56 -71 -43 -49 -81 25 -43 36 19 13 61 215 -390 180 -401 303 -659 333 -695
16 -19 23 -22 32 -13 9 8 8 25 -5 69 -33 113 -174 448 -369 879 -48 104 -85
194 -82 201 2 6 17 15 33 19 34 8 53 23 53 41 0 18 -41 18 -87 -1 -46 -19 -50
-19 -58 4 -4 15 20 55 94 154 56 73 101 138 101 144 0 5 -18 15 -39 22 -22 6
-49 23 -59 36 -24 31 -27 31 -47 3z"/>
<path d="M1059 1583 c-37 -40 -89 -115 -89 -127 0 -12 52 -56 85 -73 27 -13
188 -38 250 -38 60 0 228 24 246 35 16 10 -18 220 -37 227 -12 4 -141 -42
-158 -57 -4 -5 8 -30 28 -56 55 -72 52 -76 -59 -88 -62 -7 -119 5 -123 25 -1
8 15 36 38 61 22 25 40 48 40 51 0 8 -157 67 -178 67 -10 0 -30 -12 -43 -27z"/>
<path d="M981 1266 c-6 -42 -11 -90 -11 -106 0 -27 3 -30 34 -30 22 0 52 -12
86 -35 29 -19 56 -33 60 -30 12 7 70 172 70 199 0 13 -6 28 -12 33 -11 9 -78
23 -184 40 l-31 5 -12 -76z"/>
<path d="M1558 1335 c-3 -3 -34 -10 -69 -16 -92 -14 -129 -28 -129 -47 0 -23
69 -200 81 -207 5 -4 30 9 55 27 36 25 56 33 90 33 24 0 44 3 44 6 0 11 -31
173 -36 192 -5 16 -25 23 -36 12z"/>
<path d="M1523 1071 c-58 -36 -66 -73 -32 -152 23 -53 34 -60 44 -29 11 34 50
53 91 45 l37 -6 -6 50 c-9 79 -26 105 -67 109 -21 1 -47 -5 -67 -17z"/>
<path d="M852 544 c-51 -255 -56 -274 -106 -338 -22 -29 -36 -58 -34 -70 5
-33 63 -26 131 15 65 38 58 21 126 296 46 181 48 201 26 244 -15 28 -68 69
-90 69 -6 0 -30 -97 -53 -216z"/>
<path d="M1666 745 c-11 -8 -39 -15 -63 -15 -30 0 -43 -4 -43 -14 0 -12 115
-423 141 -503 8 -25 24 -39 83 -69 43 -22 79 -35 89 -31 24 9 21 49 -8 88 -51
71 -65 111 -110 315 -61 277 -53 256 -89 229z"/>
</g>
</svg>
