<?xml version="1.0" standalone="no"?>
<!DOCTYPE svg PUBLIC "-//W3C//DTD SVG 20010904//EN"
 "http://www.w3.org/TR/2001/REC-SVG-20010904/DTD/svg10.dtd">
<svg version="1.0" xmlns="http://www.w3.org/2000/svg"
 width="281.000000pt" height="281.000000pt" viewBox="0 0 281.000000 281.000000"
 preserveAspectRatio="xMidYMid meet">
<metadata>
Created by potrace 1.15, written by Peter Selinger 2001-2017
</metadata>
<g transform="translate(0.000000,281.000000) scale(0.100000,-0.100000)"
fill="#000000" stroke="none">
<path d="M1517 2696 c-52 -19 -67 -34 -67 -67 0 -28 2 -29 48 -29 31 0 57 -7
77 -21 112 -76 187 -89 236 -40 23 24 29 38 29 73 0 24 -7 53 -15 64 -14 18
-15 18 -40 -13 -33 -41 -55 -41 -99 -2 -33 28 -83 50 -116 49 -8 -1 -32 -7
-53 -14z"/>
<path d="M1895 2575 c-8 -14 -22 -37 -31 -51 -9 -14 -36 -35 -60 -46 -37 -16
-51 -18 -76 -9 -17 6 -37 11 -44 11 -24 0 -15 -36 19 -75 31 -35 38 -39 94
-43 93 -7 162 18 212 74 23 26 41 50 41 55 0 4 -17 9 -37 11 -35 3 -38 6 -44
42 -9 58 -47 75 -74 31z"/>
<path d="M1441 2563 c-57 -30 -75 -64 -79 -146 -4 -87 16 -133 68 -160 42 -22
102 -17 132 10 53 47 78 95 78 150 0 59 -15 96 -53 132 -35 32 -101 38 -146
14z"/>
<path d="M1260 2177 c-16 -8 -26 -23 -28 -41 -4 -28 -3 -29 37 -23 l41 5 -7
-232 -6 -233 77 -32 c43 -18 84 -35 92 -38 12 -4 14 33 14 249 l0 254 -32 16
c-18 8 -53 32 -76 52 -47 38 -72 43 -112 23z"/>
<path d="M1625 2145 c-33 -25 -70 -48 -82 -51 l-23 -6 0 -254 c0 -140 2 -254
5 -254 15 0 174 80 181 91 10 16 53 380 54 457 0 43 -3 52 -17 52 -10 0 -27 3
-38 6 -15 4 -39 -8 -80 -41z"/>
<path d="M895 2072 c-36 -15 -89 -26 -136 -29 l-78 -6 -6 -72 c-8 -84 9 -359
31 -490 37 -226 111 -377 208 -429 l37 -20 54 54 c60 60 104 135 141 242 49
144 84 398 84 606 l0 102 -34 0 c-54 0 -136 18 -190 43 l-51 23 -60 -24z m164
-133 l64 -14 -7 -118 c-13 -234 -72 -491 -136 -591 l-31 -48 -24 22 c-56 52
-107 238 -129 464 -9 88 -16 183 -16 212 0 59 -12 50 110 83 40 11 78 9 169
-10z"/>
<path d="M1917 1745 c-9 -13 -35 -30 -57 -36 -22 -7 -40 -17 -40 -22 0 -6 45
-71 101 -144 74 -99 98 -139 94 -154 -8 -23 -12 -23 -58 -4 -46 19 -87 19 -87
1 0 -18 19 -33 53 -41 16 -4 31 -13 33 -19 3 -7 -34 -97 -82 -201 -195 -431
-336 -766 -369 -879 -13 -44 -14 -61 -5 -69 9 -9 16 -6 32 13 30 36 153 294
333 695 202 451 179 409 215 390 74 -38 96 0 25 43 -60 36 -60 42 7 56 36 8
45 44 24 96 -12 29 -13 46 -6 66 13 33 4 47 -26 40 -22 -6 -30 2 -73 71 -63
99 -80 123 -89 123 -4 0 -15 -12 -25 -25z"/>
<path d="M1287 1603 c-3 -5 -13 -55 -22 -111 -15 -83 -16 -105 -6 -112 18 -11
186 -35 246 -35 62 0 223 25 250 38 33 17 85 61 85 73 0 30 -106 154 -132 154
-21 0 -178 -59 -178 -67 0 -3 18 -26 40 -51 23 -25 39 -53 38 -61 -4 -20 -61
-32 -123 -25 -111 12 -114 16 -59 88 20 26 32 51 28 56 -11 9 -139 60 -153 60
-5 0 -12 -3 -14 -7z"/>
<path d="M1216 1323 c-5 -19 -36 -181 -36 -192 0 -3 20 -6 44 -6 34 0 54 -8
90 -33 25 -18 50 -31 55 -27 12 7 81 184 81 207 0 19 -36 32 -125 47 -33 6
-70 13 -82 17 -15 4 -23 1 -27 -13z"/>
<path d="M1745 1331 c-11 -5 -45 -12 -75 -16 -64 -8 -80 -19 -80 -51 0 -27 58
-192 70 -199 4 -3 31 11 60 30 34 23 64 35 86 35 31 0 34 3 34 30 0 16 -5 63
-11 105 -11 72 -13 75 -38 74 -14 0 -35 -4 -46 -8z"/>
<path d="M1182 1078 c-13 -17 -32 -86 -32 -121 0 -26 2 -28 35 -21 40 7 79
-13 90 -46 10 -31 21 -24 44 29 25 59 26 89 5 119 -31 44 -118 69 -142 40z"/>
<path d="M1106 743 c-3 -10 -26 -112 -51 -227 -45 -204 -59 -244 -110 -315
-29 -39 -32 -79 -8 -88 10 -4 46 9 89 31 59 30 75 44 83 69 26 80 141 491 141
503 0 10 -13 14 -43 14 -24 0 -52 7 -63 15 -25 19 -32 19 -38 -2z"/>
<path d="M1863 740 c-36 -22 -63 -66 -63 -105 0 -14 18 -99 41 -188 68 -275
61 -258 126 -296 68 -41 126 -48 131 -15 2 12 -12 41 -34 70 -50 64 -55 83
-106 338 -23 119 -47 216 -53 216 -5 0 -24 -9 -42 -20z"/>
</g>
</svg>
