<?xml version="1.0" standalone="no"?>
<!DOCTYPE svg PUBLIC "-//W3C//DTD SVG 20010904//EN"
 "http://www.w3.org/TR/2001/REC-SVG-20010904/DTD/svg10.dtd">
<svg version="1.0" xmlns="http://www.w3.org/2000/svg"
 width="225.000000pt" height="225.000000pt" viewBox="0 0 225.000000 225.000000"
 preserveAspectRatio="xMidYMid meet">
<metadata>
Created by potrace 1.15, written by Peter Selinger 2001-2017
</metadata>
<g transform="translate(0.000000,225.000000) scale(0.100000,-0.100000)"
fill="#000000" stroke="none">
<path d="M954 2159 c-16 -5 -41 -20 -54 -34 -31 -33 -67 -33 -82 0 -20 43 -38
24 -38 -40 0 -24 7 -39 26 -54 40 -32 81 -26 149 20 49 33 67 39 98 37 33 -3
37 -1 35 16 -6 41 -79 71 -134 55z"/>
<path d="M690 2070 c-8 -5 -14 -24 -15 -42 0 -30 -3 -33 -32 -33 l-32 0 23
-30 c39 -50 83 -70 154 -70 59 0 66 2 93 33 34 38 40 69 10 52 -56 -29 -129 1
-156 66 -15 36 -21 39 -45 24z"/>
<path d="M971 2025 c-26 -30 -31 -43 -31 -88 1 -46 5 -57 39 -94 34 -38 44
-43 80 -43 54 0 87 34 97 97 14 95 -32 163 -111 163 -37 0 -48 -5 -74 -35z"/>
<path d="M863 1743 c-28 -5 -28 3 -3 -208 11 -93 20 -177 20 -186 0 -11 25
-27 75 -47 l75 -31 0 199 0 198 -24 6 c-14 3 -41 22 -62 41 -20 19 -42 34 -48
34 -6 -1 -21 -4 -33 -6z"/>
<path d="M1163 1730 c-7 -10 -31 -30 -53 -42 l-40 -23 0 -197 0 -197 68 28 67
28 -4 187 -3 188 31 -7 c27 -6 31 -4 31 14 0 39 -76 55 -97 21z"/>
<path d="M1439 1652 c-28 -14 -71 -24 -110 -27 l-64 -4 3 -113 c9 -312 73
-542 176 -636 l46 -43 31 18 c73 43 127 156 158 328 17 92 33 343 25 401 l-6
52 -67 4 c-39 2 -82 12 -106 23 l-40 20 -46 -23z m134 -95 c47 -9 57 -15 57
-32 0 -73 -22 -305 -34 -362 -19 -88 -51 -174 -78 -208 -19 -24 -22 -25 -38
-10 -63 57 -124 305 -131 530 l-3 70 40 7 c21 3 50 11 64 17 14 6 34 8 45 5
11 -3 46 -10 78 -17z"/>
<path d="M654 1358 c-68 -115 -74 -121 -89 -102 -16 23 -30 1 -15 -26 8 -15 7
-27 -6 -51 -22 -44 -7 -79 36 -79 43 0 38 -23 -10 -45 -22 -10 -40 -24 -40
-32 0 -17 18 -16 50 2 14 8 27 14 30 15 3 0 86 -182 185 -405 159 -359 235
-508 252 -492 18 19 -70 241 -292 732 -68 151 -85 188 -85 191 0 1 16 8 35 14
37 12 50 24 40 40 -3 5 -25 1 -52 -11 -45 -19 -48 -19 -60 -3 -7 10 -9 22 -5
28 5 6 44 57 87 114 43 56 76 104 74 106 -2 1 -20 7 -39 12 -20 6 -40 19 -46
33 -11 22 -13 20 -50 -41z"/>
<path d="M821 1228 l-45 -61 32 -28 c18 -16 42 -30 54 -33 188 -34 180 -34
366 0 17 4 22 10 18 20 -3 9 -11 48 -18 88 -6 39 -12 72 -13 74 -2 2 -32 -9
-69 -24 l-66 -28 24 -25 c33 -37 48 -68 36 -76 -18 -11 -116 -18 -154 -11 -45
9 -46 24 -1 72 19 20 34 38 33 40 -7 6 -133 54 -142 54 -6 0 -31 -28 -55 -62z"/>
<path d="M796 1054 c-4 -13 -9 -51 -13 -84 l-6 -60 27 0 c31 0 61 -14 92 -42
25 -22 18 -31 61 86 24 67 24 70 7 83 -10 7 -32 13 -50 13 -17 0 -50 6 -72 14
-39 14 -40 14 -46 -10z"/>
<path d="M1235 1060 c-11 -5 -37 -9 -57 -9 -39 -1 -88 -19 -88 -32 0 -9 59
-162 65 -167 1 -2 15 8 30 22 29 27 85 43 105 31 9 -5 10 1 6 21 -3 16 -8 47
-12 69 -12 79 -13 81 -49 65z"/>
<path d="M1206 844 c-31 -31 -32 -54 -7 -109 16 -37 18 -38 25 -17 10 30 41
45 77 37 27 -6 29 -5 25 17 -19 94 -22 98 -67 98 -15 0 -37 -11 -53 -26z"/>
<path d="M720 608 c0 -2 -18 -92 -39 -201 -38 -190 -41 -200 -76 -238 -65 -73
-29 -101 59 -47 l54 33 46 177 c44 167 46 179 32 212 -8 20 -28 42 -45 51 -17
8 -31 14 -31 13z"/>
<path d="M1335 593 c-12 -9 -32 -13 -52 -9 -18 2 -33 1 -33 -3 0 -11 117 -421
121 -424 34 -27 115 -67 125 -63 24 9 15 49 -20 86 -32 33 -37 48 -76 230 -23
107 -43 196 -44 197 0 1 -10 -5 -21 -14z"/>
</g>
</svg>
